<?xml version="1.0" encoding="UTF-8" standalone="no"?>
<!-- Created with Inkscape (http://www.inkscape.org/) -->

<svg
   width="275.03131mm"
   height="36.832989mm"
   viewBox="0 0 275.03131 36.832989"
   version="1.1"
   id="svg1"
   inkscape:version="1.4 (e7c3feb100, 2024-10-09)"
   sodipodi:docname="numbers.svg"
   xmlns:inkscape="http://www.inkscape.org/namespaces/inkscape"
   xmlns:sodipodi="http://sodipodi.sourceforge.net/DTD/sodipodi-0.dtd"
   xmlns="http://www.w3.org/2000/svg"
   xmlns:svg="http://www.w3.org/2000/svg">
  <sodipodi:namedview
     id="namedview1"
     pagecolor="#505050"
     bordercolor="#eeeeee"
     borderopacity="1"
     inkscape:showpageshadow="0"
     inkscape:pageopacity="0"
     inkscape:pagecheckerboard="0"
     inkscape:deskcolor="#505050"
     inkscape:document-units="mm"
     inkscape:zoom="0.75098906"
     inkscape:cx="410.7916"
     inkscape:cy="71.905176"
     inkscape:window-width="1920"
     inkscape:window-height="1020"
     inkscape:window-x="1280"
     inkscape:window-y="32"
     inkscape:window-maximized="1"
     inkscape:current-layer="layer1" />
  <defs
     id="defs1" />
  <g
     inkscape:label="Layer 1"
     inkscape:groupmode="layer"
     id="layer1"
     transform="translate(-8.4145762,-58.45024)">
    <path
       d="m 21.978176,95.12784 q -4.4196,0 -7.4676,-2.4384 -3.048,-2.4384 -4.5719998,-6.604 -1.524,-4.1656 -1.524,-9.3472 0,-5.1308 1.524,-9.2964 1.5239998,-4.1656 4.5719998,-6.5532 3.0988,-2.4384 7.4676,-2.4384 4.3688,0 7.4168,2.4384 3.048,2.3876 4.572,6.5532 1.524,4.1656 1.524,9.2964 0,5.1816 -1.524,9.3472 -1.524,4.1656 -4.572,6.604 -3.048,2.4384 -7.4168,2.4384 z m -3.6068,-26.3144 q -0.762,1.8796 -1.016,5.0292 -0.254,3.1496 0,6.2992 0.3048,3.0988 1.016,4.9784 0.6096,1.6256 2.1336,2.2352 1.524,0.6096 2.9972,0 1.524,-0.6096 2.1336,-2.2352 0.7112,-1.8796 0.9652,-4.9784 0.3048,-3.1496 0.0508,-6.2992 -0.254,-3.1496 -1.016,-5.0292 -0.6604,-1.6256 -2.1844,-2.2352 -1.4732,-0.6096 -2.9464,0 -1.4732,0.6096 -2.1336,2.2352 z m 24.637997,-0.254 q -1.524,1.6764 -3.2004,1.778 -1.6764,0.0508 -2.6924,-1.016 -1.016,-1.0668 -0.5588,-2.2352 0.6096,-1.6764 2.3368,-3.7592 1.7272,-2.0828 3.9624,-3.5052 2.286,-1.4224 4.5212,-1.3208 2.6416,0.1524 3.8608,2.794 1.2192,2.6416 1.4224,6.0452 0.2032,3.4036 0.1016,8.3312 0,1.2192 -0.0508,2.4384 -0.0508,7.0104 -0.3556,10.414 -0.3048,3.4036 -1.3716,5.1308 -1.016,1.6764 -3.302,1.524 -2.286,-0.1524 -3.302,-2.9464 -0.9652,-2.8448 -0.6604,-9.4488 0.1524,-2.3876 0.6604,-6.1468 0.6604,-4.826 0.6604,-6.858 0,-0.6604 -0.3048,-1.1684 -0.3048,-0.508 -0.8128,-0.508 -0.4572,-0.0508 -0.9144,0.4572 z m 22.961624,-1.2192 q 1.4224,-1.0668 2.7432,-0.6604 1.3208,0.4064 1.5748,1.8288 0.254,1.3716 -1.016,2.8956 -1.4224,1.6764 -4.5212,4.7752 -3.6068,3.6068 -5.2832,5.8928 -1.6764,2.2352 -1.7272,4.4704 -0.0508,3.2004 1.2192,5.1816 1.3208,1.9304 3.7084,2.794 2.4384,0.8128 5.8928,0.762 5.9436,-0.0508 8.636,-1.3716 2.6924,-1.3208 2.6924,-3.2512 0,-1.0668 -0.762,-2.032 -0.7112,-1.016 -1.8288,-1.6256 -1.1176,-0.6604 -2.2352,-0.6604 -0.9144,0 -5.1816,0.1524 -1.9304,0.1016 -2.3368,-0.3048 -0.3556,-0.4064 0.1524,-1.0668 0.5588,-0.6604 1.8796,-1.8288 l 0.1016,-0.1016 q 4.7752,-4.318 7.0104,-8.1788 2.2352,-3.9116 1.9304,-7.62 -0.3556,-3.7592 -2.7432,-6.35 -2.3368,-2.5908 -6.858,-2.5908 -2.794,0 -5.588,1.1176 -2.7432,1.0668 -4.4704,2.8956 -1.7272,1.778 -1.7272,3.81 0,1.524 0.9652,2.3368 0.9652,0.762 2.3876,0.9144 0.9144,0.1016 1.7272,0 0.8636,-0.1524 1.27,-0.4572 z m 29.514847,4.826 q -0.508,0.2032 -1.6764,0.4572 -1.1176,0.2032 -1.4732,0.3556 -1.6256,0.508 -2.3368,1.5748 -0.7112,1.016 -0.6096,2.286 0.1016,1.2192 0.8636,2.1844 0.8128,0.9652 1.8796,1.0668 l 3.4036,0.3048 q 1.5748,0.1524 2.2352,1.9812 0.7112,1.8288 -0.3048,3.5052 -0.9652,1.6256 -3.7592,1.6256 -1.524,0 -2.8448,-0.6604 -1.3208,-0.7112 -2.9464,-1.8796 -0.3556,-0.3048 -0.9652,-0.7112 -1.1684,-0.8128 -2.3876,-0.4064 -1.2192,0.4064 -1.9304,1.6764 -0.7112,1.27 -0.6096,2.794 0.2032,2.1844 2.0828,3.7592 1.9304,1.524 4.7752,2.286 2.8956,0.762 5.8928,0.762 4.1656,0 6.807196,-1.3716 2.6416,-1.3716 3.81,-3.556 1.2192,-2.2352 1.1684,-4.826 -0.0508,-3.048 -1.5748,-5.588 -1.524,-2.5908 -3.7592,-3.1496 -0.3556,-0.0508 -0.5588,-0.254 -0.1524,-0.254 -0.1524,-0.5588 0,-0.6604 0.5588,-0.9144 2.286,-1.016 3.4036,-2.9464 1.1684,-1.9304 1.0668,-4.2164 -0.1524,-2.3368 -1.524,-4.4704 -1.3716,-2.1336 -3.9116,-3.4544 -2.539996,-1.3716 -5.943596,-1.3716 -3.0988,0 -5.6896,0.8636 -2.5908,0.8128 -4.064,2.54 -1.4732,1.6764 -1.2192,4.1656 0.2032,1.9812 1.3208,2.6924 1.1176,0.6604 2.5908,0.3556 1.4732,-0.3048 2.7432,-1.2192 0.9144,-0.6604 1.9812,-1.016 1.0668,-0.3556 1.8796,-0.3556 1.9304,0 2.9464,1.9304 0.3048,0.6604 0.254,1.4224 0,0.762 -0.4064,1.4224 -0.3556,0.6604 -1.016,0.9144 z m 35.763236,7.7724 q -0.1016,0.9144 0.254,1.27 0.3556,0.3556 1.1176,0.1016 0.9652,-0.3556 1.6764,0 0.7112,0.3048 1.0668,1.1176 0.3556,0.8128 0.3556,1.9812 0,2.1844 -0.762,2.9464 -0.7112,0.7112 -2.4384,0.1016 -0.508,-0.1524 -0.8636,0.1016 -0.3048,0.254 -0.4572,0.8128 -0.1016,0.508 0.0508,1.1684 0.3556,1.7272 0,2.9972 -0.3556,1.2192 -1.3716,1.8796 -0.9652,0.6604 -2.4384,0.7112 -2.286,0.0508 -3.81,-1.3208 -1.4732,-1.3716 -1.016,-3.9624 0.1524,-0.8636 -0.4572,-1.1684 -0.5588,-0.3556 -1.27,-0.1524 -4.2164,1.2192 -7.4168,0.6604 -3.2004,-0.5588 -4.2672,-2.794 -1.1684,-2.4384 -0.0508,-6.5532 1.1176,-4.1656 4.7244,-9.8552 3.4036,-5.3848 7.3152,-8.7376 3.9624,-3.3528 6.9088,-2.6416 2.0828,0.508 2.9972,2.9972 0.9144,2.4892 0.8636,6.9088 0,4.4196 -0.7112,11.43 z m -10.0584,-9.0424 q -1.4224,1.8796 -2.5908,4.9784 -1.1176,3.048 -1.016,4.826 0.0508,0.6604 1.2192,0.9144 1.1684,0.2032 2.3368,-0.0508 1.2192,-0.3048 1.27,-0.9652 l 0.9652,-9.2964 q 0.0508,-0.762 -0.3048,-1.0668 -0.3556,-0.3048 -0.9144,-0.1016 -0.508,0.1524 -0.9652,0.762 z m 28.1432,8.3312 q -0.762,-0.1524 -2.1336,-0.1524 -2.1844,-0.0508 -3.81,-0.3048 -1.5748,-0.3048 -2.9464,-1.3208 -1.4732,-1.0668 -2.4892,-3.0988 -0.9652,-2.0828 -0.9652,-5.2832 0,-5.334 3.0988,-7.9756 3.0988,-2.6416 10.668,-2.6416 3.4544,0 5.334,0.4572 1.8796,0.4572 2.54,1.3208 0.7112,0.8128 0.7112,2.1336 0,1.9812 -0.9144,2.9972 -0.8636,1.016 -2.4384,1.3208 -1.5748,0.254 -3.9116,0.0508 -0.6604,-0.0508 -1.3208,-0.1016 -0.6604,-0.0508 -1.3208,-0.1524 -2.3368,-0.3048 -3.2512,0.9144 -0.8636,1.2192 0,2.54 0.8636,1.27 2.794,1.1684 3.6068,-0.2032 6.35,1.27 2.7432,1.4224 4.2164,3.9624 1.524,2.54 1.6256,5.4864 0.1016,3.302 -1.4224,6.2992 -1.524,2.9972 -4.6228,4.9276 -3.048,1.9304 -7.5184,1.9812 -4.4196,0.0508 -6.9596,-1.27 -2.4892,-1.3716 -3.2004,-3.4036 -0.6604,-2.032 0.1524,-3.8608 0.508,-1.1684 1.4732,-1.8796 1.016,-0.7112 2.286,-0.7112 0.7112,0 1.1684,0.254 0.508,0.254 1.1684,0.762 0.8636,0.7112 1.7272,1.1176 0.8636,0.3556 2.286,0.3556 3.048,0 4.1148,-1.524 1.0668,-1.5748 0.2032,-3.4036 -0.8128,-1.8288 -2.6924,-2.2352 z m 34.49323,-18.0848 q 0.3048,1.0668 -0.6604,2.3876 -0.9144,1.3208 -2.5908,2.6416 l -2.3368,1.8288 q -0.6604,0.508 -0.762,1.2192 -0.1016,0.6604 0.254,1.1176 0.4064,0.4064 1.0668,0.3048 v 0 q 1.778,-0.3556 3.556,0.1524 1.778,0.4572 3.3528,1.7272 1.9304,1.4732 3.1496,3.8608 1.2192,2.3876 1.4732,5.2832 0.1016,1.016 0.1016,1.6256 0,3.7592 -1.9304,6.4516 -1.9304,2.6924 -4.9276,4.064 -2.9464,1.3208 -6.096,1.3208 -7.4168,0 -10.8712,-3.5052 -3.4036,-3.556 -3.4036,-9.2964 0,-4.7244 2.2352,-10.2108 1.1684,-2.794 2.794,-5.2324 1.6764,-2.4892 3.6068,-4.3688 1.9304,-1.9304 3.9624,-2.9464 1.524,-0.762 3.2004,-1.016 1.6764,-0.254 2.9972,0.3556 1.3716,0.5588 1.8288,2.2352 z m -11.3284,18.288 q -1.1684,2.6924 0,5.0292 0.8128,1.524 2.54,2.0828 1.7272,0.5588 3.4036,0 1.7272,-0.5588 2.54,-2.0828 1.1684,-2.3368 0,-5.0292 -0.7112,-1.5748 -2.4892,-2.1336 -1.778,-0.6096 -3.556,0 -1.7272,0.5588 -2.4384,2.1336 z m 27.17802,-11.9888 q 4.4704,-0.254 5.08,-0.254 0.6604,0 1.1684,0.3048 0.5588,0.254 0.762,0.7112 0.2032,0.4064 -0.1016,0.9144 -1.016,1.6256 -2.032,3.2512 -1.1176,1.8796 -1.6764,2.794 -0.5588,0.8636 -1.6764,2.6924 -1.4732,2.4384 -2.7432,4.7244 -1.27,2.2352 -2.1336,4.1656 -0.9652,2.1336 -1.27,4.064 -0.3048,1.8796 0.4064,3.0988 0.7112,1.2192 2.7432,1.2192 1.8288,-0.0508 3.4544,-1.8288 1.6764,-1.778 4.318,-5.842 2.794,-4.2164 5.4356,-9.7536 2.6416,-5.5372 4.318,-9.9568 0.508,-1.3716 0.508,-2.6416 0,-3.7592 -3.0988,-5.1816 -3.048,-1.4732 -8.7376,-1.4732 -3.8608,0 -6.5024,0.8128 -2.6416,0.8128 -3.9624,2.0828 -1.3208,1.2192 -1.4732,2.5908 -0.1524,1.6256 1.1684,2.6924 1.3208,1.0668 4.2672,0.9144 z m 23.622,9.1948 q 0.508,-0.2032 0.7112,-0.4572 0.2032,-0.3048 0,-0.6096 -0.1524,-0.3556 -0.6096,-0.6604 -2.032,-1.27 -3.2512,-2.794 -1.2192,-1.5748 -1.2192,-3.9116 0,-3.1496 1.6764,-5.334 1.7272,-2.1844 4.4196,-3.2512 2.6924,-1.0668 5.6388,-1.1176 3.0988,-0.0508 5.7912,1.016 2.6924,1.0668 4.3688,3.2512 1.6764,2.1336 1.6764,5.2832 0,1.9304 -0.5588,3.1496 -0.5588,1.1684 -1.3716,1.8288 -0.762,0.6096 -2.032,1.3716 -0.2032,0.0508 -0.508,0.254 -0.508,0.3048 -0.7112,0.6096 -0.2032,0.3048 -0.0508,0.6604 0.1524,0.3048 0.6604,0.508 2.6416,1.1176 4.2672,3.1496 1.6764,2.032 1.6764,5.1308 0,5.1816 -3.5052,7.8232 -3.4544,2.5908 -9.4996,2.5908 -3.6068,0 -6.6548,-1.1176 -3.048,-1.1176 -4.8768,-3.2512 -1.8288,-2.1336 -1.8288,-5.1308 0,-3.302 1.7272,-5.7404 1.778,-2.4384 4.064,-3.2512 z m 5.08,-9.8044 q -0.6604,0.8128 -0.6604,1.9812 0,1.1684 0.6604,2.032 0.6096,0.762 1.5748,1.016 0.9652,0.254 1.9304,0 0.9652,-0.254 1.5748,-1.016 0.7112,-0.8636 0.7112,-2.032 0,-1.1684 -0.7112,-1.9812 -0.6096,-0.762 -1.5748,-1.016 -0.9652,-0.3048 -1.9304,0 -0.9652,0.254 -1.5748,1.016 z m -1.3716,13.97 q -0.9652,1.2192 -0.9652,2.794 0,1.5748 0.9652,2.7432 0.9144,1.016 2.286,1.3716 1.4224,0.3556 2.794,0 1.4224,-0.3556 2.286,-1.3716 1.016,-1.1684 1.016,-2.7432 0,-1.5748 -1.016,-2.794 -0.8636,-1.0668 -2.286,-1.4224 -1.3716,-0.4064 -2.794,0 -1.3716,0.3556 -2.286,1.4224 z m 25.60319,11.176 q -0.1524,-2.032 1.016,-4.572 1.2192,-2.54 4.4704,-4.4704 l 0.762,-0.4572 q 0.4572,-0.254 0.4572,-0.6604 0,-0.4572 -0.4064,-0.762 -0.3556,-0.3048 -0.8128,-0.254 v 0 q -1.6764,0.254 -3.7084,0 -2.032,-0.254 -3.302,-0.9144 -1.27,-0.6604 -2.286,-1.6764 -1.016,-1.016 -1.6764,-2.3876 -1.2192,-2.54 -1.2192,-5.5372 0,-3.8608 1.7272,-6.5024 1.778,-2.6924 4.6736,-4.0132 2.9464,-1.3208 6.5532,-1.3208 4.1656,0 7.1628,1.7272 2.9972,1.6764 4.5212,4.6228 1.5748,2.8956 1.5748,6.4516 0,4.8768 -2.54,10.5156 -2.4892,5.6388 -6.2484,9.4996 -3.7084,3.8608 -6.9596,3.8608 -1.9304,0 -2.794,-0.8636 -0.8128,-0.8636 -0.9652,-2.286 z m 3.0988,-24.5364 q -1.016,1.27 -1.016,2.9464 0,1.6256 1.016,2.8956 0.9144,1.1176 2.1336,1.524 1.27,0.3556 2.4892,0 1.27,-0.4064 2.1844,-1.524 1.0668,-1.27 1.0668,-2.8956 0,-1.6764 -1.0668,-2.9464 -0.9144,-1.0668 -2.1844,-1.4224 -1.2192,-0.4064 -2.4892,0 -1.2192,0.3556 -2.1336,1.4224 z m 23.11398,6.9088 q -1.9304,0 -3.302,-1.3208 -1.3716,-1.3716 -1.3716,-3.302 0,-1.9304 1.3716,-3.302 1.3716,-1.3716 3.302,-1.3716 1.2192,0 2.286,0.6604 1.0668,0.6096 1.6764,1.6764 0.6604,1.0668 0.6604,2.3368 0,1.8796 -1.3716,3.2512 -1.3716,1.3716 -3.2512,1.3716 z m 0,14.0208 q -1.9304,0 -3.302,-1.3208 -1.3716,-1.3716 -1.3716,-3.302 0,-1.9304 1.3716,-3.302 1.3716,-1.3716 3.302,-1.3716 1.2192,0 2.286,0.6604 1.0668,0.6096 1.6764,1.6764 0.6604,1.0668 0.6604,2.3368 0,1.8796 -1.3716,3.2512 -1.3716,1.3716 -3.2512,1.3716 z"
       id="text1"
       style="font-size:50.8px;line-height:1;font-family:Inflate;-inkscape-font-specification:Inflate;letter-spacing:0px;word-spacing:2.64583px;fill:#ffffff;stroke-width:2.64583"
       aria-label="0123456789:" />
  </g>
</svg>
